<!-- Generator: Gravit.io --><svg xmlns="http://www.w3.org/2000/svg" style="isolation:isolate" viewBox="0 0 1280 800" width="1280pt" height="800pt" xmlns:xlink="http://www.w3.org/1999/xlink"><defs><clipPath id="_clipPath_r4QcHZkBeLeFcbN6qaiih9J7kAeXtJsJ"><rect width="1280" height="800"/></clipPath></defs><g clip-path="url(#_clipPath_r4QcHZkBeLeFcbN6qaiih9J7kAeXtJsJ)"><rect style="fill:rgb(246,246,255)" width="1280" height="800"/><rect fill="rgb(106, 114, 255)" transform="matrix(1, 0, 0, 1, 0, 0)" x="0" y="0" width="640" height="800"/><g><text style="font-family:'Numans';font-weight:400;font-size:75px;font-style:normal;fill:#f6f6ff;stroke:none;" transform="matrix(1, 0, 0, 1, 81, 172.998)">ScratchLink</text><text style="font-family:'Numans';font-weight:400;font-size:100px;font-style:normal;fill:#f6f6ff;stroke:none;" transform="matrix(1, 0, 0, 1, 81, 290.479)">1</text><text style="font-family:'Numans';font-weight:400;font-size:30px;font-style:normal;fill:#f6f6ff;stroke:none;" transform="matrix(1, 0, 0, 1, 24.5, 421.27)">Lorem ipsum dolor sit amet, </text><text style="font-family:'Numans';font-weight:400;font-size:30px;font-style:normal;fill:#f6f6ff;stroke:none;" transform="matrix(1, 0, 0, 1, 24.5, 456.514)">consectetur adipiscing elit,sed do </text><text style="font-family:'Numans';font-weight:400;font-size:30px;font-style:normal;fill:#f6f6ff;stroke:none;" transform="matrix(1, 0, 0, 1, 24.5, 491.758)">eiusmod tempor incididunt ut labore </text><text style="font-family:'Numans';font-weight:400;font-size:30px;font-style:normal;fill:#f6f6ff;stroke:none;" transform="matrix(1, 0, 0, 1, 24.5, 527.002)">et dolore magnaaliqua. Ut enim ad </text><text style="font-family:'Numans';font-weight:400;font-size:30px;font-style:normal;fill:#f6f6ff;stroke:none;" transform="matrix(1, 0, 0, 1, 24.5, 562.246)">minim veniam, quis nostrud </text><text style="font-family:'Numans';font-weight:400;font-size:30px;font-style:normal;fill:#f6f6ff;stroke:none;" transform="matrix(1, 0, 0, 1, 24.5, 597.49)">exercitationullamco laboris nisi ut </text><text style="font-family:'Numans';font-weight:400;font-size:30px;font-style:normal;fill:#f6f6ff;stroke:none;" transform="matrix(1, 0, 0, 1, 24.5, 632.734)">aliquip ex ea commodo consequat.</text></g><g><path style="stroke:none;fill:#6A72FF;stroke-miterlimit:10;" d="M 760 350 L 1160 350 C 1187.6 350 1210 372.404 1210 400 L 1210 400 C 1210 427.596 1187.6 450 1160 450 L 760 450 C 732.404 450 710 427.596 710 400 L 710 400 C 710 372.404 732.404 350 760 350 Z"/><text style="font-family:'Numans';font-weight:400;font-size:30px;font-style:normal;fill:#f6f6ff;stroke:none;" transform="matrix(1, 0, 0, 1, 740, 409.521)">Sign in with ScratchVerifier</text></g></g></svg>